<?xml version="1.0" encoding="UTF-8"?>
<svg version="1.1" xmlns="http://www.w3.org/2000/svg" width="1024" height="1024">
<path d="M0 0 C337.92 0 675.84 0 1024 0 C1024 337.92 1024 675.84 1024 1024 C686.08 1024 348.16 1024 0 1024 C0 686.08 0 348.16 0 0 Z " fill="#0E0E0F" transform="translate(0,0)"/>
<path d="M0 0 C0.7387587 -0.0065712 1.4775174 -0.0131424 2.23866272 -0.01991272 C4.67831535 -0.03958798 7.11790657 -0.05129577 9.55761719 -0.0612793 C10.39347099 -0.06535482 11.2293248 -0.06943035 12.09050751 -0.07362938 C16.51525116 -0.09446613 20.93996404 -0.10877784 25.36474609 -0.11816406 C29.92206139 -0.12921985 34.47888729 -0.1636168 39.03602982 -0.20333576 C42.55176671 -0.22954855 46.0673878 -0.23786004 49.58321381 -0.24144554 C51.26245171 -0.24629993 52.94168484 -0.25788108 54.62082672 -0.27648354 C70.97222039 -0.44636585 70.97222039 -0.44636585 77.60449219 4.17700195 C84.87380814 11.44631791 85.94567448 17.69797436 85.97777843 27.62259579 C85.96714057 29.0260685 85.95622691 30.42953914 85.94506836 31.83300781 C85.94414848 33.34571847 85.94455133 34.85843041 85.94616413 36.37114048 C85.94683925 40.40890693 85.92949756 44.44640472 85.90833282 48.48410797 C85.89120214 52.27794712 85.89044099 56.07172211 85.88830566 59.86560059 C85.8725863 70.94860306 85.83070262 82.03155594 85.79199219 93.11450195 C85.73011719 117.88512695 85.66824219 142.65575195 85.60449219 168.17700195 C162.49449219 168.17700195 239.38449219 168.17700195 318.60449219 168.17700195 C318.406653 118.93296836 318.406653 118.93296836 318.15405273 69.68920898 C318.13146973 60.14941406 318.13146973 60.14941406 318.12727356 55.67868042 C318.12262868 52.56643734 318.10394609 49.45462379 318.07661438 46.34249878 C318.04214086 42.36404085 318.0320686 38.38620122 318.03913081 34.40760779 C318.03765562 32.9529593 318.02784506 31.49828765 318.00841653 30.04376817 C317.89908829 21.4550381 318.36454184 14.27387553 323.60449219 7.17700195 C329.29719821 1.94673149 333.35790241 0.0283933 341.04833984 0 C341.8160672 -0.0065712 342.58379456 -0.0131424 343.37478638 -0.01991272 C345.92271012 -0.03966653 348.47057473 -0.05131556 351.01855469 -0.0612793 C351.88934032 -0.06535482 352.76012596 -0.06943035 353.65729904 -0.07362938 C358.27006545 -0.09450328 362.88280202 -0.10879684 367.49560547 -0.11816406 C372.25026638 -0.12920539 377.0044563 -0.16357496 381.75895119 -0.20333576 C385.42223959 -0.22954725 389.08541682 -0.23786012 392.74879074 -0.24144554 C394.5005955 -0.24630318 396.25239557 -0.25789366 398.00410843 -0.27648354 C400.46453748 -0.3009624 402.92376255 -0.29989399 405.38427734 -0.29296875 C406.45850952 -0.31218384 406.45850952 -0.31218384 407.55444336 -0.33178711 C414.29277372 -0.26310385 419.31118086 2.24042794 424.41699219 6.55200195 C429.23924143 12.33870105 430.73973008 17.67037529 430.70214844 25.03637695 C430.69892578 26.15141602 430.69570313 27.26645508 430.69238281 28.4152832 C430.68400391 29.57415039 430.675625 30.73301758 430.66699219 31.92700195 C430.66248047 33.10133789 430.65796875 34.27567383 430.65332031 35.4855957 C430.64154313 38.38278268 430.62509545 41.27986649 430.60449219 44.17700195 C431.26324341 44.1658989 431.92199463 44.15479584 432.60070801 44.14335632 C439.47910963 44.03243228 446.3572557 43.95719729 453.23632812 43.90234375 C455.8008863 43.87725498 458.36537336 43.8431761 460.9296875 43.79980469 C464.62355126 43.73890895 468.31646669 43.71073431 472.01074219 43.6887207 C473.15063599 43.66291428 474.29052979 43.63710785 475.46496582 43.61051941 C483.78147148 43.60761268 488.48825108 45.49781347 494.62792969 50.9855957 C495.07394531 51.52313477 495.51996094 52.06067383 495.97949219 52.61450195 C496.44097656 53.14946289 496.90246094 53.68442383 497.37792969 54.2355957 C501.05111792 60.0495274 500.88071171 65.95848734 500.83154297 72.58862305 C500.83183502 73.62337769 500.83212708 74.65813232 500.83242798 75.72424316 C500.83103836 79.13306155 500.81549429 82.54165941 500.79980469 85.95043945 C500.79607325 88.31840902 500.7932269 90.68638014 500.79122925 93.05435181 C500.78360309 99.27846561 500.76396322 105.50248567 500.74182129 111.7265625 C500.72134102 118.08112317 500.71222286 124.43569902 500.70214844 130.7902832 C500.68071645 143.25257054 500.64554248 155.71476378 500.60449219 168.17700195 C509.51449219 168.17700195 518.42449219 168.17700195 527.60449219 168.17700195 C527.60449219 193.58700195 527.60449219 218.99700195 527.60449219 245.17700195 C519.02449219 245.17700195 510.44449219 245.17700195 501.60449219 245.17700195 C501.58990967 248.38169189 501.57532715 251.58638184 501.56030273 254.88818359 C501.50994565 265.48139258 501.44334839 276.07445474 501.36877728 286.66751957 C501.32406699 293.08953151 501.28481204 299.51147991 501.25805664 305.93359375 C501.23203064 312.13232326 501.19163253 318.33080834 501.14130592 324.52938652 C501.12463258 326.89320267 501.11312123 329.2570611 501.10687828 331.62092781 C501.09724262 334.93423151 501.06918833 338.24690922 501.03686523 341.56005859 C501.03830032 342.53542068 501.03973541 343.51078278 501.04121399 344.51570129 C500.92780978 352.74584064 498.85975013 358.49438398 493.28027344 364.66918945 C488.14703858 369.28790426 481.22983251 370.30781679 474.53881836 370.29052734 C473.55817917 370.29045181 472.57753998 370.29037628 471.56718445 370.29029846 C469.99817131 370.28255653 469.99817131 370.28255653 468.39746094 370.2746582 C467.31692947 370.27324326 466.23639801 370.27182831 465.12312317 370.27037048 C461.67938442 370.26478275 458.23571121 370.25223245 454.79199219 370.23950195 C452.4541025 370.23448537 450.1162118 370.22992274 447.77832031 370.22583008 C442.05368866 370.21481733 436.32909511 370.19809136 430.60449219 370.17700195 C430.62501144 370.9567337 430.6455307 371.73646545 430.66667175 372.53982544 C430.72324781 374.6897156 430.77893266 376.83962935 430.83383179 378.98956299 C430.89486506 381.2371554 430.97069369 383.48435879 431.05493164 385.73120117 C431.15828038 393.92575606 429.61863976 400.48026142 424.19604492 406.82495117 C418.72888622 411.8652583 411.97258117 412.47745456 404.85253906 412.45166016 C404.11173599 412.45677109 403.37093292 412.46188202 402.60768127 412.46714783 C400.17945081 412.48095236 397.75150702 412.48009433 395.32324219 412.4777832 C393.62365617 412.48167453 391.92407112 412.48601009 390.2244873 412.49076843 C386.67062215 412.49821051 383.11685638 412.49795354 379.56298828 412.49267578 C375.02029625 412.48687699 370.47801139 412.5038317 365.93538666 412.52702045 C362.42825971 412.5417855 358.92123028 412.54262585 355.41407776 412.53951073 C353.73962089 412.54002232 352.06515834 412.54522953 350.39073181 412.55532265 C348.04570363 412.567727 345.7014619 412.56087261 343.35644531 412.54931641 C342.67260269 412.55696014 341.98876007 412.56460388 341.28419495 412.57247925 C334.36396906 412.49750103 328.5317203 410.10423006 323.60449219 405.17700195 C319.93345499 399.18221057 318.47832166 394.06759281 318.48423767 387.03936768 C318.48286017 385.7827747 318.48148268 384.52618172 318.48006344 383.23151016 C318.48361004 381.83606189 318.48724794 380.44061384 318.4909668 379.04516602 C318.49127317 377.55284503 318.49113958 376.06052389 318.49060154 374.56820297 C318.49037578 370.57179298 318.49617174 366.57541293 318.50321198 362.57901001 C318.50890681 358.82895819 318.50917509 355.07891365 318.5098877 351.32885742 C318.51513507 340.3615683 318.52909622 329.39428475 318.54199219 318.42700195 C318.56261719 293.92450195 318.58324219 269.42200195 318.60449219 244.17700195 C241.71449219 244.17700195 164.82449219 244.17700195 85.60449219 244.17700195 C85.76276174 293.09188523 85.76276174 293.09188523 85.96484375 342.0065918 C85.98291016 351.48291016 85.98291016 351.48291016 85.98626709 355.92398071 C85.98998273 359.01532556 86.00492825 362.10639359 86.02679443 365.19766235 C86.05437489 369.14955122 86.06243054 373.10104168 86.05678129 377.05301785 C86.05796134 378.49788499 86.06580823 379.94276707 86.08135271 381.38755107 C86.17237051 390.26470005 86.00526194 398.99286496 79.9921751 406.07632256 C71.5433689 414.32665305 60.10636654 413.6517277 49.10839844 413.64575195 C47.50853717 413.65286701 45.90867842 413.66056793 44.30882263 413.66882324 C40.96777234 413.68221324 37.62695815 413.68386131 34.28588867 413.67797852 C30.02798916 413.67208256 25.77122992 413.70269429 21.51355076 413.7430954 C18.21300777 413.76908195 14.91273559 413.77184007 11.61210442 413.76820374 C10.04337635 413.76988425 8.47463431 413.77942267 6.90600777 413.79734802 C-2.00536011 413.88800331 -9.92634454 413.72769669 -17.39550781 408.17700195 C-24.42277994 401.02816035 -25.63619361 393.38924602 -25.57128906 383.65356445 C-25.54615234 382.18016602 -25.54615234 382.18016602 -25.52050781 380.67700195 C-25.51148438 379.66379883 -25.50246094 378.6505957 -25.49316406 377.60668945 C-25.46979788 375.12987395 -25.4370395 372.65356816 -25.39550781 370.17700195 C-26.30513527 370.18699471 -26.30513527 370.18699471 -27.23313904 370.19718933 C-33.57651437 370.26384691 -39.91978928 370.30892828 -46.26342773 370.34179688 C-48.62707566 370.35683136 -50.99069593 370.37726437 -53.35424805 370.40332031 C-56.76260222 370.4399384 -60.17058573 370.45678226 -63.57910156 370.4699707 C-64.62633896 370.48545456 -65.67357635 370.50093842 -66.75254822 370.51689148 C-74.3337578 370.51860871 -80.75866877 369.52074267 -87.20800781 365.36450195 C-93.90359408 358.66891569 -95.61598837 351.83185481 -95.64434814 342.70608521 C-95.63715759 341.75877533 -95.62996704 340.81146545 -95.62255859 339.83544922 C-95.62285065 338.82005569 -95.6231427 337.80466217 -95.6234436 336.75849915 C-95.62205618 333.42004696 -95.60652253 330.08182115 -95.59082031 326.7434082 C-95.5870881 324.42170839 -95.58424211 322.100007 -95.58224487 319.77830505 C-95.57462486 313.68079242 -95.55499032 307.58337573 -95.53283691 301.48590088 C-95.51234336 295.25859881 -95.50323565 289.03128118 -95.49316406 282.80395508 C-95.47174293 270.59492186 -95.43657402 258.38598491 -95.39550781 246.17700195 C-104.63550781 245.84700195 -113.87550781 245.51700195 -123.39550781 245.17700195 C-123.39550781 220.09700195 -123.39550781 195.01700195 -123.39550781 169.17700195 C-114.15550781 169.17700195 -104.91550781 169.17700195 -95.39550781 169.17700195 C-95.41645508 165.98278564 -95.43740234 162.78856934 -95.45898438 159.49755859 C-95.52534687 148.92846286 -95.56948026 138.35935778 -95.6027565 127.79010868 C-95.62360599 121.3837231 -95.65187609 114.97755151 -95.69726562 108.57128906 C-95.74081648 102.38562868 -95.76466476 96.20017377 -95.77501678 90.01437187 C-95.78239149 87.6577271 -95.79679253 85.30109321 -95.81842804 82.94453621 C-95.84758395 79.6364448 -95.8514586 76.3291959 -95.84960938 73.02099609 C-95.86399048 72.05282455 -95.87837158 71.08465302 -95.89318848 70.08714294 C-95.84639585 62.32033899 -94.02337806 56.27654122 -88.95800781 50.30200195 C-80.69415885 43.44905404 -72.47031739 42.87570518 -62.11425781 42.98168945 C-61.06016724 42.98451935 -60.00607666 42.98734924 -58.92004395 42.99026489 C-55.57841272 43.00139209 -52.237057 43.02648292 -48.89550781 43.05200195 C-46.61947004 43.06204139 -44.34342803 43.07116555 -42.06738281 43.0793457 C-36.50999835 43.10130695 -30.95277277 43.13470966 -25.39550781 43.17700195 C-25.39768311 42.32920166 -25.3998584 41.48140137 -25.40209961 40.60791016 C-25.44257215 13.4315636 -25.44257215 13.4315636 -19.39550781 7.17700195 C-13.02398143 1.43757145 -8.5167122 0.03304289 0 0 Z " fill="#FCD118" transform="translate(311.3955078125,305.822998046875)"/>
<path d="M0 0 C20.46 0.33 40.92 0.66 62 1 C62 120.46 62 239.92 62 363 C41.54 363 21.08 363 0 363 C0 243.21 0 123.42 0 0 Z " fill="#12110F" transform="translate(655,330)"/>
<path d="M0 0 C20.13 0 40.26 0 61 0 C61 119.13 61 238.26 61 361 C40.87 361 20.74 361 0 361 C0 241.87 0 122.74 0 0 Z " fill="#0E0E0F" transform="translate(311,332)"/>
<path d="M0 0 C15.18 0 30.36 0 46 0 C46 91.08 46 182.16 46 276 C31.15 276 16.3 276 1 276 C0.67 184.92 0.34 93.84 0 0 Z " fill="#0F0E0F" transform="translate(741,374)"/>
<path d="M0 0 C0 91.08 0 182.16 0 276 C-14.52 276 -29.04 276 -44 276 C-44 185.25 -44 94.5 -44 1 C-1 0 -1 0 0 0 Z " fill="#0F0E0F" transform="translate(286,374)"/>
<path d="M0 0 C76.89 0 153.78 0 233 0 C233.33 8.58 233.66 17.16 234 26 C156.78 26 79.56 26 0 26 C0 17.42 0 8.84 0 0 Z " fill="#11100F" transform="translate(397,499)"/>
<path d="M0 0 C1.98 0 3.96 0 6 0 C6 8.91 6 17.82 6 27 C4.02 27 2.04 27 0 27 C0 18.09 0 9.18 0 0 Z " fill="#221C12" transform="translate(211,499)"/>
<path d="M0 0 C1.32 0 2.64 0 4 0 C4 8.91 4 17.82 4 27 C2.68 27 1.36 27 0 27 C0 18.09 0 9.18 0 0 Z " fill="#070510" transform="translate(812,499)"/>
</svg>
